<?xml version="1.0" encoding="UTF-8" standalone="no"?>
<!DOCTYPE svg PUBLIC "-//W3C//DTD SVG 1.1//EN" "http://www.w3.org/Graphics/SVG/1.1/DTD/svg11.dtd">
<svg width="100%" height="100%" viewBox="0 0 950 375" version="1.1" xmlns="http://www.w3.org/2000/svg" xmlns:xlink="http://www.w3.org/1999/xlink" xml:space="preserve" xmlns:serif="http://www.serif.com/" style="fill-rule:evenodd;clip-rule:evenodd;stroke-linejoin:round;stroke-miterlimit:2;"><g opacity="0.95"><g><g><path d="M230.471,285.392l-45.409,-0l0,-12.921c-10.12,8.721 -19.9,15.004 -33.512,15.004l-3.479,0c-18.525,0 -29.346,-10.483 -29.346,-31.775l0,-165.833l46.1,-0l0,149.425c0,5.233 2.417,7.679 9.079,7.679c4.192,-0 7.679,-1.059 10.488,-2.092l-0,-155.012l46.079,-0l-0,195.525Z" style="fill:#fff;fill-rule:nonzero;"/><path d="M245.879,89.867l45.396,-0l0,12.912c10.125,-8.729 19.913,-15.012 33.513,-15.012l3.491,-0c18.488,-0 29.35,10.454 29.35,31.75l0,165.871l-46.108,-0.001l-0,-149.433c-0,-5.254 -2.446,-7.704 -9.088,-7.704c-4.183,-0 -7.662,1.058 -10.45,2.108l0,155.029l-46.104,0l0,-195.52Z" style="fill:#fff;fill-rule:nonzero;"/><path d="M484.421,306.083c-0,27.946 -13.271,40.842 -41.217,40.842l-33.837,0c-25.13,0 -37,-11.508 -37,-36.637l-0,-10.446l41.15,-0l-0,5.183c-0,5.263 2.479,7.712 7.708,7.712l10.113,0c5.237,0 7.712,-2.445 7.712,-7.712l0,-33.242c-10.121,8.013 -20.637,13.609 -34.242,13.609l-0.675,-0c-20.27,-0 -32.17,-11.529 -32.17,-33.884l-0,-129.875c-0,-22.35 11.9,-33.866 32.17,-33.866l0.675,-0c13.605,-0 24.121,5.562 34.242,13.612l0,-11.512l45.371,-0l-0,216.216Zm-46.108,-175.72c-2.75,-1.05 -6.259,-2.109 -11.163,-2.109c-6.633,0 -9.075,2.446 -9.075,7.704l0,102.988c0,5.225 2.442,7.679 9.075,7.679c4.9,0 8.413,-1.029 11.163,-2.079l-0,-114.183Z" style="fill:#fff;fill-rule:nonzero;"/><path d="M561.292,134.567c-0,-5.259 -2.413,-7.713 -7.642,-7.713l-3.15,0c-5.221,0 -7.704,2.45 -7.704,7.713l-0,13.583c-0,5.6 1.746,8.046 6.637,11.175l35.646,22c14.279,9.058 20.913,17.458 20.913,35.279l-0,28.271c-0,28.279 -14.304,42.6 -42.55,42.6l-22.042,0c-28.254,0 -42.558,-14.321 -42.558,-42.6l-0,-30.708l44.325,-0l-0,26.52c-0,5.225 2.446,7.671 7.675,7.671l3.854,0c5.225,0 7.671,-2.446 7.671,-7.671l-0,-14.666c-0,-5.575 -1.746,-8.025 -6.625,-11.171l-35.625,-22.021c-14.304,-9.058 -20.942,-17.45 -20.942,-35.25l0,-27.221c0,-28.3 14.3,-42.591 42.588,-42.591l21.279,-0c28.308,-0 42.616,14.295 42.616,42.591l0,29.334l-44.366,-0l-0,-25.125Z" style="fill:#fff;fill-rule:nonzero;"/><path d="M743.304,206.125l0,33.85c0,5.267 2.479,7.721 7.709,7.721l4.225,-0c5.229,-0 7.641,-2.454 7.641,-7.721l0,-18.471l44.034,0l-0,23.371c-0,28.279 -14.355,42.6 -42.63,42.6l-23.725,0c-28.279,0 -42.62,-14.321 -42.62,-42.6l-0,-114.513c-0,-28.3 14.341,-42.591 42.62,-42.591l23.725,-0c28.275,-0 42.63,14.296 42.63,42.591l-0,75.763l-63.609,-0Zm-0.004,-35.621l18.904,0l0,-35.937c0,-5.259 -2.475,-7.713 -7.708,-7.713l-3.488,0c-5.225,0 -7.708,2.45 -7.708,7.713l0,35.937Z" style="fill:#fff;fill-rule:nonzero;"/><path d="M821.575,89.867l45.442,-0l-0,12.912c10.116,-8.729 19.87,-15.012 33.508,-15.012l3.483,-0c18.5,-0 29.325,10.454 29.325,31.75l0,165.871l-46.079,-0.001l0,-149.433c0,-5.254 -2.479,-7.704 -9.075,-7.704c-4.191,-0 -7.675,1.058 -10.496,2.108l0,155.029l-46.108,0l0,-195.52Z" style="fill:#fff;fill-rule:nonzero;"/></g><path d="M526.263,35.417l-26.005,43.65l128.188,-0l-0,206.325l48.921,-0l-0,-206.325l255.966,-0l0,-43.65l-407.071,-0Z" style="fill:#fff;fill-rule:nonzero;"/><path d="M510.346,35.529l-0,-0.112l-497.488,-0l0,43.65l29.688,-0l-0,206.325l48.858,-0l0,-206.325l393.017,-0l25.925,-43.538Z" style="fill:#fff;fill-rule:nonzero;"/></g><g><path d="M515.979,326.442l0,8.716c0,5.221 -2.575,7.813 -7.812,7.813l-1.555,-0c-5.233,-0 -7.812,-2.588 -7.812,-7.813l0,-27.15c0,-5.233 2.583,-7.816 7.813,-7.816l1.554,-0c5.162,-0 7.7,2.52 7.7,7.691l-0,7.571l-4.688,0l0,-7.696c0,-2.162 -1.029,-3.179 -3.191,-3.179l-1.196,0c-2.171,0 -3.188,1.021 -3.188,3.179l0,27.634c0,2.158 1.017,3.183 3.188,3.183l1.32,-0c2.159,-0 3.175,-1.025 3.175,-3.183l0,-8.95l4.692,-0Z" style="fill:#fff;fill-rule:nonzero;"/><path d="M535.192,300.55l-0,4.45l-8.417,0l0,13.938l8.125,-0l0,4.383l-8.125,-0l0,14.842l8.546,-0l-0,4.441l-13.342,0l0,-42.054l13.213,0Z" style="fill:#fff;fill-rule:nonzero;"/><path d="M557.896,328.425l-0,14.183l-4.808,0l-0,-13.995c-0,-2.521 -1.138,-3.667 -3.667,-3.667l-3.538,-0l0,17.667l-4.812,-0l-0,-42.063l8.958,0c5.221,0 7.813,2.592 7.813,7.813l-0,7.808c-0,3.783 -1.329,5.65 -3.721,6.608c2.633,0.733 3.775,2.409 3.775,5.646Zm-8.054,-23.488l-3.963,0l0,15.746l3.604,0c2.4,0 3.55,-1.146 3.55,-3.554l0,-9.012c0,-2.155 -1.033,-3.18 -3.191,-3.18Z" style="fill:#fff;fill-rule:nonzero;"/><path d="M568.163,342.608l-0,-37.608l-6.309,0l0,-4.45l17.417,0l-0,4.45l-6.304,0l-0,37.604l-4.805,0l0,0.004Z" style="fill:#fff;fill-rule:nonzero;"/><rect x="584.004" y="300.55" width="4.813" height="42.058" style="fill:#fff;fill-rule:nonzero;"/><path d="M608.158,300.55l0,4.45l-8.112,0l-0,14.05l7.808,0l0,4.396l-7.808,-0l-0,19.162l-4.808,0l-0,-42.058l12.92,0Z" style="fill:#fff;fill-rule:nonzero;"/><rect x="613.854" y="300.55" width="4.804" height="42.058" style="fill:#fff;fill-rule:nonzero;"/><path d="M642.154,326.442l0,8.716c0,5.221 -2.587,7.813 -7.808,7.813l-1.567,-0c-5.221,-0 -7.812,-2.588 -7.812,-7.813l-0,-27.15c-0,-5.233 2.587,-7.816 7.812,-7.816l1.567,-0c5.167,-0 7.683,2.52 7.683,7.691l0,7.571l-4.687,0l-0,-7.696c-0,-2.162 -1.025,-3.179 -3.175,-3.179l-1.209,0c-2.17,0 -3.175,1.021 -3.175,3.179l0,27.634c0,2.158 1.009,3.183 3.175,3.183l1.329,-0c2.15,-0 3.184,-1.025 3.184,-3.183l-0,-8.95l4.683,-0Z" style="fill:#fff;fill-rule:nonzero;"/><path d="M660.942,342.608l-1.017,-7.029l-7.762,0l-0.942,7.029l-4.638,0l6.484,-42.17l6.146,-0l6.479,42.17l-4.75,0Zm-8.167,-11.358l6.546,0l-3.304,-23.308l-3.242,23.308Z" style="fill:#fff;fill-rule:nonzero;"/><path d="M673.004,342.608l0,-37.608l-6.312,0l-0,-4.45l17.429,0l-0,4.45l-6.3,0l-0,37.604l-4.817,0l0,0.004Z" style="fill:#fff;fill-rule:nonzero;"/><rect x="688.858" y="300.55" width="4.804" height="42.058" style="fill:#fff;fill-rule:nonzero;"/><path d="M709.571,342.967l-1.792,-0c-5.233,-0 -7.821,-2.588 -7.821,-7.813l0,-27.15c0,-5.233 2.588,-7.817 7.821,-7.817l1.792,0c5.233,0 7.812,2.584 7.812,7.817l0,27.15c0.005,5.225 -2.579,7.813 -7.812,7.813Zm-0.171,-38.384l-1.45,0c-2.15,0 -3.175,1.021 -3.175,3.18l0,27.633c0,2.158 1.025,3.183 3.175,3.183l1.45,0c2.163,0 3.188,-1.025 3.188,-3.183l-0,-27.633c-0,-2.163 -1.03,-3.18 -3.188,-3.18Z" style="fill:#fff;fill-rule:nonzero;"/><path d="M728.188,309.688l-0,32.916l-4.559,0l0,-42.054l6.6,0l6.975,30.346l0,-30.346l4.575,0l0,42.054l-6.016,0l-7.576,-32.916Z" style="fill:#fff;fill-rule:nonzero;"/><path d="M773.783,329.033l0,6.125c0,5.221 -2.587,7.813 -7.812,7.813l-1.325,-0c-5.163,-0 -7.679,-2.588 -7.679,-7.696l-0,-8.833l4.683,-0l0,9.016c0,2.159 1.017,3.184 3.183,3.184l0.963,-0c2.15,-0 3.179,-1.025 3.179,-3.184l0,-6.308c0,-2.104 -0.717,-3.008 -2.1,-4.029l-5.892,-4.263c-3.125,-2.22 -4.012,-4.391 -4.012,-7.812l-0,-5.038c-0,-5.233 2.567,-7.816 7.787,-7.816l1.217,-0c5.171,-0 7.692,2.583 7.692,7.691l-0,7.571l-4.688,0l0,-7.758c0,-2.158 -1.029,-3.183 -3.179,-3.183l-0.837,-0c-2.175,-0 -3.192,1.025 -3.192,3.183l-0,5.287c-0,2.105 0.775,3.013 2.158,4.03l5.829,4.2c3.059,2.233 4.025,4.216 4.025,7.82Z" style="fill:#fff;fill-rule:nonzero;"/><path d="M789.329,342.967l-1.8,-0c-5.221,-0 -7.812,-2.588 -7.812,-7.813l-0,-27.15c-0,-5.233 2.591,-7.817 7.812,-7.817l1.8,0c5.221,0 7.813,2.584 7.813,7.817l-0,27.15c-0.005,5.225 -2.592,7.813 -7.813,7.813Zm-0.179,-38.384l-1.446,0c-2.154,0 -3.192,1.021 -3.192,3.18l0,27.633c0,2.158 1.038,3.183 3.192,3.183l1.446,0c2.158,0 3.179,-1.025 3.179,-3.183l0,-27.633c0,-2.163 -1.021,-3.18 -3.179,-3.18Z" style="fill:#fff;fill-rule:nonzero;"/><path d="M816.292,300.55l-0,4.45l-8.113,0l0,14.05l7.813,0l-0,4.396l-7.813,-0l0,19.162l-4.804,0l0,-42.058l12.917,0Z" style="fill:#fff;fill-rule:nonzero;"/><path d="M826.263,342.608l-0,-37.608l-6.317,0l-0,-4.45l17.425,0l-0,4.45l-6.296,0l0,37.604l-4.812,0l-0,0.004Z" style="fill:#fff;fill-rule:nonzero;"/><path d="M861.754,336.358l3.721,-35.804l4.692,0l-5.117,42.054l-6.246,0l-3.425,-30.158l-3.304,30.158l-6.242,0l-5.104,-42.054l4.813,0l3.6,35.804l3.962,-35.804l4.817,0l3.833,35.804Z" style="fill:#fff;fill-rule:nonzero;"/><path d="M887.088,342.608l-1.009,-7.029l-7.746,0l-0.962,7.029l-4.633,0l6.491,-42.17l6.138,-0l6.479,42.17l-4.758,0Zm-8.167,-11.358l6.542,0l-3.3,-23.308l-3.242,23.308Z" style="fill:#fff;fill-rule:nonzero;"/><path d="M913.758,328.425l0,14.183l-4.8,0l0,-13.995c0,-2.521 -1.141,-3.667 -3.67,-3.667l-3.555,-0l0,17.667l-4.791,-0l-0,-42.063l8.95,0c5.216,0 7.804,2.592 7.804,7.813l-0,7.808c-0,3.783 -1.313,5.65 -3.725,6.608c2.637,0.733 3.787,2.409 3.787,5.646Zm-8.058,-23.488l-3.967,0l0,15.746l3.609,0c2.404,0 3.545,-1.146 3.545,-3.554l0,-9.012c0,-2.155 -1.012,-3.18 -3.187,-3.18Z" style="fill:#fff;fill-rule:nonzero;"/><path d="M933.213,300.55l-0,4.45l-8.409,0l0,13.938l8.104,-0l0,4.383l-8.104,-0l0,14.842l8.529,-0l0,4.441l-13.341,0l-0,-42.054l13.221,0Z" style="fill:#fff;fill-rule:nonzero;"/></g></g></svg>