<?xml version="1.0" encoding="UTF-8" standalone="no"?>
<!DOCTYPE svg PUBLIC "-//W3C//DTD SVG 1.1//EN" "http://www.w3.org/Graphics/SVG/1.1/DTD/svg11.dtd">
<svg width="100%" height="100%" viewBox="0 0 280 250" version="1.1" xmlns="http://www.w3.org/2000/svg" xmlns:xlink="http://www.w3.org/1999/xlink" xml:space="preserve" xmlns:serif="http://www.serif.com/" style="fill-rule:evenodd;clip-rule:evenodd;stroke-linejoin:round;stroke-miterlimit:2;"><path d="M102.333,183.846l-26.679,19.466l32.488,23.713l10.187,-31.5l-15.991,-11.679l-0.005,-0Zm10.625,46.691l26.679,19.463l26.667,-19.467l-26.667,-19.479l-26.679,19.479l0,0.004Zm13.475,-60.162l-97.821,-71.392l22.834,47.725l32.442,23.667l42.545,-0Zm10.234,-31.479l-136.667,-99.738l22.833,47.738l105.696,77.133l8.142,-25.133l-0.004,-0Zm-117.296,-138.896l-16.113,33.679l49.517,36.134l-33.404,-69.813Zm141.546,195.525l10.2,31.5l32.475,-23.708l-26.684,-19.471l-15.991,11.679Zm34.446,-25.15l32.441,-23.667l22.825,-47.725l-97.808,71.392l42.542,0Zm-52.767,-31.479l8.125,25.133l105.704,-77.133l22.833,-47.738l-136.662,99.738Zm117.279,-138.896l-33.417,69.813l49.53,-36.134l-16.117,-33.679l0.004,0Zm-135.071,188.546c-0.014,-8.15 6.679,-14.869 14.829,-14.888c8.146,0.025 14.833,6.742 14.821,14.888c0.016,8.148 -6.672,14.869 -14.821,14.892c-8.191,-0 -14.833,-6.667 -14.833,-14.892" style="fill:#fff;"/></svg>