<?xml version="1.0" encoding="UTF-8" standalone="no"?>
<!DOCTYPE svg PUBLIC "-//W3C//DTD SVG 1.1//EN" "http://www.w3.org/Graphics/SVG/1.1/DTD/svg11.dtd">
<svg width="100%" height="100%" viewBox="0 0 1092 767" version="1.1" xmlns="http://www.w3.org/2000/svg" xmlns:xlink="http://www.w3.org/1999/xlink" xml:space="preserve" xmlns:serif="http://www.serif.com/" style="fill-rule:evenodd;clip-rule:evenodd;stroke-linejoin:round;stroke-miterlimit:2;"><g id="Test-B"><path id="Fill-1" d="M455,87.083c35,-36.25 83.75,-59.166 137.5,-59.166c71.667,-0 133.75,40 167.083,99.166c28.75,-12.916 60.834,-20 94.584,-20c129.166,0 233.333,105.417 233.333,235.417c0,130 -104.583,235.417 -233.333,235.417c-15.834,-0 -31.25,-1.667 -45.834,-4.584c-29.166,52.084 -85,87.5 -149.166,87.5c-26.667,0 -52.084,-6.25 -74.584,-17.083c-29.583,69.583 -98.75,118.75 -179.166,118.75c-83.75,-0 -155.417,-52.917 -182.917,-127.5c-12.083,2.5 -24.583,3.75 -37.083,3.75c-100,0 -180.834,-81.667 -180.834,-182.917c0,-67.5 36.25,-126.666 90.417,-158.333c-11.25,-25.417 -17.5,-53.75 -17.5,-83.75c-0.417,-115.417 94.167,-209.583 210,-209.583c68.333,-0 129.167,32.5 167.5,82.916Zm424.583,304.167c-0.833,-1.667 -2.5,-1.25 -2.083,-2.083c-2.917,1.25 -5.833,2.083 -8.75,2.5c-2.917,0.416 -6.25,0.833 -10,0.833c-9.167,-0 -16.25,-2.5 -21.25,-7.917c-5,-5.416 -7.917,-13.75 -7.917,-25.416c0,-10.834 2.5,-18.75 7.084,-24.584c4.166,-6.25 11.25,-9.166 20.416,-9.166c7.5,-0 13.334,0.833 19.584,2.916c-0,0 1.25,0.834 2.083,-1.25c1.667,-4.166 2.917,-7.5 4.583,-12.5c0.417,-1.25 -0.833,-2.083 -1.25,-2.083c-2.5,-1.25 -8.333,-2.5 -12.5,-3.333c-3.75,-0.417 -8.333,-0.834 -13.75,-0.834c-7.916,0 -15,1.667 -20.833,4.167c-5.833,2.5 -10.833,6.25 -15,10.833c-4.167,4.584 -7.083,10 -9.167,16.25c-2.083,6.25 -2.916,12.917 -2.916,20c-0,15.417 4.166,27.917 12.5,37.084c8.333,9.166 20.416,13.75 36.666,13.75c9.584,-0 19.167,-1.667 26.25,-4.584c0,0 1.25,-0.416 0.834,-2.083l-4.584,-12.5Zm94.584,-54.583c-1.667,-5.834 -5.417,-12.084 -7.5,-13.75c-4.167,-4.584 -8.334,-7.5 -12.084,-9.167c-5,-2.5 -11.25,-3.75 -17.916,-3.75c-7.917,0 -15,1.25 -20.834,4.167c-5.833,2.5 -10.833,6.25 -14.583,10.833c-3.75,4.583 -6.667,10 -8.333,16.25c-2.084,6.25 -2.917,12.917 -2.917,20c0,7.083 0.833,13.75 2.917,20c2.083,5.833 5,11.25 9.166,15.833c4.167,4.584 9.584,7.917 15.834,10.417c6.25,2.5 14.166,3.75 22.916,3.75c18.334,0 27.917,-4.167 31.667,-6.25c0.417,-0.417 1.25,-0.833 0.417,-2.917l-4.167,-11.666c-0.833,-1.667 -2.5,-1.25 -2.5,-1.25c-4.583,1.666 -10.833,4.583 -25.833,4.583c-10,-0 -17.084,-2.917 -21.667,-7.5c-5,-4.583 -7.083,-11.25 -7.5,-20.833l62.917,-0c-0,-0 1.666,-0 1.666,-1.667c0.417,-0.833 2.5,-12.917 -1.666,-27.083Zm-62.5,13.333c1.25,-6.25 2.5,-11.25 5,-15c3.75,-5.833 9.583,-9.167 17.916,-9.167c8.334,0 13.75,3.334 17.5,9.167c2.5,4.167 3.75,9.167 4.167,15l-44.583,-0Zm-425.417,47.5c-0.417,1.667 0.417,2.083 0.417,2.917c2.083,1.666 4.166,2.5 6.25,3.75c11.25,5.833 21.666,7.5 32.5,7.5c22.083,-0 35.833,-11.667 35.833,-30.834l0,-0.416c0,-17.917 -15.417,-24.167 -30,-28.75l-2.083,-0.417c-10.834,-3.333 -20.417,-6.667 -20.417,-13.75l0,-0.417c0,-6.25 5.417,-10.833 14.167,-10.833c9.583,-0 20.833,2.917 28.333,7.083c0,0 2.083,1.25 2.917,-0.833c0.416,-1.25 4.166,-10.833 4.583,-12.083c0.417,-1.25 -0.417,-2.084 -1.25,-2.5c-8.333,-5.417 -19.583,-8.75 -31.667,-8.75l-2.083,-0c-20.417,-0 -34.583,12.5 -34.583,30l-0,0.416c-0,18.334 15.833,24.584 30.416,28.75l2.5,0.834c10.834,3.333 20,6.25 20,13.75l0,0.416c0,7.084 -6.25,12.084 -15.833,12.084c-3.75,-0 -15.833,-0 -28.75,-8.334c-1.667,-1.25 -2.5,-1.666 -3.75,-2.5c-0.417,-0.416 -2.083,-1.25 -2.917,0.834l-4.583,12.083Zm-325,-0c-0.833,1.667 -0,2.083 0.417,2.917c2.083,1.666 4.166,2.5 6.25,3.75c11.25,5.833 21.666,7.5 32.5,7.5c22.083,-0 35.833,-11.667 35.833,-30.834l-0,-0.416c-0,-17.917 -15.417,-24.167 -30,-28.75l-2.083,-0.417c-10.834,-3.333 -20.417,-6.667 -20.417,-13.75l-0,-0.417c-0,-6.25 5.417,-10.833 14.167,-10.833c9.583,-0 20.833,2.917 28.333,7.083c-0,0 2.083,1.25 2.917,-0.833c0.416,-1.25 4.166,-10.833 4.583,-12.083c0.417,-1.25 -0.417,-2.084 -1.25,-2.5c-8.333,-5.417 -19.583,-8.75 -31.667,-8.75l-2.083,-0c-20.417,-0 -34.583,12.5 -34.583,30l-0,0.416c-0,18.334 15.833,24.584 30.416,28.75l2.5,0.834c10.834,3.333 20,6.25 20,13.75l0,0.416c0,7.084 -6.25,12.084 -15.833,12.084c-3.75,-0 -15.833,-0 -28.75,-8.334c-1.667,-1.25 -2.5,-1.666 -3.75,-2.5c-0.833,-0.416 -2.083,-1.25 -2.917,0.834l-4.583,12.083Zm565.833,-57.083c-1.666,-6.25 -4.583,-11.667 -8.333,-16.25c-3.75,-4.584 -8.333,-8.334 -14.167,-10.834c-5.833,-2.916 -12.5,-4.166 -20,-4.166c-7.5,-0 -14.166,1.666 -20,4.166c-5.416,2.5 -10.416,6.25 -14.166,10.834c-3.75,4.583 -6.667,10 -8.334,16.25c-2.083,6.25 -2.916,12.916 -2.916,20c-0,7.083 1.25,13.75 2.916,20c1.667,6.25 4.584,11.666 8.334,16.25c3.75,4.583 8.333,8.333 14.166,10.833c5.834,2.5 12.5,3.75 20,3.75c7.5,-0 14.167,-1.25 20,-3.75c5.417,-2.5 10.417,-6.25 14.167,-10.833c3.75,-4.584 6.667,-10 8.333,-16.25c2.084,-6.25 2.917,-12.917 2.917,-20c-0,-7.084 -1.25,-13.75 -2.917,-20Zm-18.75,19.583c0,10.833 -1.666,19.583 -5.833,25.417c-3.75,5.833 -9.583,8.75 -17.917,8.75c-8.333,-0 -14.166,-2.917 -17.916,-8.75c-3.75,-6.25 -5.834,-14.584 -5.834,-25.417c0,-10.833 2.084,-19.167 5.834,-25c3.75,-5.833 9.583,-8.75 17.916,-8.75c7.917,-0 14.167,2.917 17.917,8.75c3.75,5.833 5.833,14.167 5.833,25Zm-58.333,-88.75c-2.083,-0.833 -4.167,-1.25 -5.833,-0.833c-2.5,-0.417 -5.417,-0.834 -8.75,-0.834c-11.25,0 -20.417,3.334 -26.667,9.584c-6.25,6.25 -10.417,15.833 -12.5,28.333l-0.833,4.167l-14.167,-0c-0,-0 -1.667,-0.417 -2.083,1.666l-2.5,12.917c-0,1.25 0.416,2.083 2.083,2.083l13.75,0l-14.167,78.75c-1.25,6.25 -2.5,11.667 -3.75,15.417c-1.666,3.75 -2.916,6.667 -4.583,8.75c-1.667,2.083 -3.333,3.75 -5.833,4.583c-2.084,0.834 -4.584,1.25 -7.5,1.25c-1.667,0 -3.334,0 -5,-0.416c-1.25,-0.417 -2.084,-0.834 -3.334,-1.25c0,-0 -1.25,-0.834 -2.083,0.833c-0.417,1.667 -4.167,11.667 -4.583,12.917c-0.417,1.25 -0,2.083 0.833,2.5c2.083,0.833 3.333,1.25 5.833,1.666c3.334,0.834 6.25,0.834 9.167,0.834c5.833,-0 11.25,-0.834 15.417,-2.5c4.583,-1.25 8.333,-4.167 11.666,-7.917c3.75,-4.167 6.25,-8.333 8.334,-14.167c2.083,-5.833 3.75,-12.916 5.416,-21.25l13.334,-80.416l20.833,-0c-0,-0 1.667,0.416 2.083,-1.667l2.5,-12.917c0,-1.25 -0.416,-2.083 -2.083,-2.083l-20,-0c-0,-0.417 0.833,-7.5 3.333,-14.167c1.25,-2.916 2.917,-5 4.584,-6.666c1.666,-1.667 3.333,-2.917 5.416,-3.334c2.084,-0.416 4.167,-0.833 6.667,-0.833c1.667,-0 3.75,-0 5,0.417c2.083,0.416 2.917,0.833 3.333,0.833c2.084,0.833 2.5,-0 2.917,-0.833l5,-13.334c0.417,-1.25 -0.833,-2.083 -1.25,-2.083Zm154.583,43.333c0.417,-1.666 -0.416,-2.083 -2.083,-2.5c-0.833,-0.416 -6.25,-1.25 -10.417,-1.666c-7.916,-0.417 -12.5,0.833 -16.25,2.5c-3.75,1.666 -7.916,4.583 -10.416,7.916l-0,-7.5c-0,-1.25 -0.417,-2.083 -1.667,-2.083l-16.25,0c-0.833,0 -1.667,0.833 -1.667,2.083l0,93.75c0,1.25 0.834,2.084 2.084,2.084l16.666,-0c1.25,-0 2.084,-0.834 2.084,-2.084l-0,-46.666c-0,-6.667 0.833,-12.917 2.083,-16.667c1.25,-3.75 2.917,-7.083 5.417,-9.167c2.5,-2.083 5,-3.75 7.916,-4.583c2.917,-0.833 6.25,-1.25 8.334,-1.25c3.333,-0 7.083,0.833 7.083,0.833c1.25,0 2.083,-0.416 2.5,-1.666c0.833,-2.917 4.167,-11.667 4.583,-13.334Zm-435.416,92.084l-0,-133.75c-0,-1.25 -0.417,-2.084 -1.667,-2.084l-16.667,0c-0.833,0 -1.666,1.25 -1.666,2.084l-0,133.75c-0,1.25 0.416,2.083 1.666,2.083l16.667,-0c0.833,-0 1.667,-0.833 1.667,-2.083Zm-70.834,-60c-2.5,-0 -5.833,-0 -10.833,-0.417c-5.417,-0 -10.417,0.833 -15.417,2.083c-4.583,1.667 -9.166,3.334 -12.916,6.25c-3.75,2.917 -7.084,6.25 -9.167,10.417c-2.083,4.167 -3.333,9.167 -3.333,14.583c-0,5.417 0.833,10.417 2.916,14.167c2.084,4.167 5,7.5 8.334,10c3.75,2.5 7.916,4.167 12.916,5.417c5,1.25 10.417,1.666 16.667,1.666c6.667,0 12.917,-0.416 19.167,-1.666c6.25,-0.834 13.75,-2.5 15.833,-2.917c2.083,-0.417 4.583,-1.25 4.583,-1.25c1.25,-0.417 1.25,-2.083 1.25,-2.083l0,-57.5c0,-12.917 -3.333,-22.084 -10,-27.917c-6.666,-5.833 -16.25,-8.75 -28.75,-8.75c-4.583,-0 -12.083,0.833 -16.666,1.667c-0,-0 -13.334,2.5 -19.167,7.083c-0,-0 -1.25,0.833 -0.417,2.5l4.584,12.083c0.416,1.25 2.083,0.834 2.083,0.834c-0,-0 0.417,-0 0.833,-0.417c12.084,-6.25 27.5,-6.25 27.5,-6.25c6.667,-0 12.084,1.667 15.417,4.167c3.333,2.5 5,6.666 5,15l-0,2.5c-5.417,-0.834 -10.417,-1.25 -10.417,-1.25Zm-25,44.166c-2.5,-1.666 -2.916,-2.5 -3.333,-3.333c-1.25,-2.083 -2.083,-5 -2.083,-8.333c-0,-5.417 1.666,-9.584 5.416,-12.084c0,0 5.417,-4.583 18.334,-4.583c9.166,-0 17.083,1.25 17.083,1.25l-0,28.75c-0,0 -7.917,1.667 -17.083,2.083c-12.5,0.834 -18.334,-3.75 -18.334,-3.75Zm197.917,-54.166c-1.25,-5.834 -5.417,-12.084 -7.083,-13.75c-4.167,-4.584 -8.334,-7.5 -12.084,-9.167c-5,-2.5 -11.25,-3.75 -17.916,-3.75c-7.917,-0 -15,1.25 -20.834,4.167c-5.833,2.5 -10.833,6.25 -14.583,10.833c-3.75,4.583 -6.667,10 -8.333,16.25c-2.084,6.25 -2.917,12.917 -2.917,20c-0,7.083 0.833,13.75 2.917,20c2.083,5.833 5,11.25 9.166,15.833c4.167,4.584 9.584,7.917 15.834,10.417c6.25,2.5 14.166,3.75 22.916,3.75c18.334,-0 27.917,-4.167 31.667,-6.25c0.417,-0.417 1.25,-0.833 0.417,-2.917l-4.167,-11.666c-0.833,-1.667 -2.5,-1.25 -2.5,-1.25c-4.583,1.666 -10.833,4.583 -25.833,4.583c-10,-0 -17.084,-2.917 -21.667,-7.5c-5,-4.583 -7.083,-11.25 -7.5,-20.833l62.917,-0c-0,-0 1.666,-0 1.666,-1.667c0,-0.833 2.084,-12.917 -2.083,-27.083Zm-62.5,13.333c1.25,-6.25 2.5,-11.25 5.417,-15c3.75,-5.833 9.583,-9.167 17.916,-9.167c8.334,0 13.75,3.334 17.5,9.167c2.5,4.167 3.75,9.167 4.167,15l-45,-0Z" style="fill:#fff;"/></g></svg>