<?xml version="1.0" encoding="UTF-8" standalone="no"?>
<!DOCTYPE svg PUBLIC "-//W3C//DTD SVG 1.1//EN" "http://www.w3.org/Graphics/SVG/1.1/DTD/svg11.dtd">
<svg width="100%" height="100%" viewBox="0 0 721 284" version="1.1" xmlns="http://www.w3.org/2000/svg" xmlns:xlink="http://www.w3.org/1999/xlink" xml:space="preserve" xmlns:serif="http://www.serif.com/" style="fill-rule:evenodd;clip-rule:evenodd;stroke-linejoin:round;stroke-miterlimit:2;"><path d="M558.196,1.603l-0,139.681l-1.817,1.472l-1.812,1.472l-1.738,1.545l-1.662,1.546l-1.588,1.546l-1.587,1.618l-3.025,3.239l-0,-152.119l-158.951,0l-0,127.17l-13.152,0l0,-127.17l-158.951,0l-0,127.391l-13.152,0l-0,-127.391l-158.952,0l0,145.201l-40.588,131.659l35.675,-0l17.913,-58.286l5.14,-0l29.629,58.286l43.082,-0l-28.722,-58.286l65.153,-0l-18.064,58.286l38.926,-0l17.837,-58.139l8.617,0l-0,-0.147l86.769,-0l-17.233,58.139l39.304,-0l16.703,-58.139l17.687,-0l0.453,58.139l32.955,-0l37.868,-58.139l24.791,-0l-12.85,58.139l38.7,-0l12.621,-58.139l22.371,-0l-0.15,3.311l0.079,3.385l0.154,3.239l0.3,3.238l0.229,1.545l0.225,1.546l0.3,1.545l0.305,1.546l0.379,1.545l0.375,1.472l0.454,1.472l0.454,1.472l0.529,1.472l0.529,1.398l0.605,1.398l0.604,1.325l0.679,1.398l0.683,1.325l0.754,1.251l0.759,1.325l0.829,1.251l0.908,1.177l0.909,1.251l0.983,1.104l0.979,1.178l0.983,1.104l1.134,1.104l1.133,1.03l2.875,2.355l1.508,1.104l1.588,1.03l1.587,1.03l1.588,0.957l1.662,0.809l1.742,0.884l1.663,0.735l1.737,0.736l1.738,0.663l1.812,0.662l1.817,0.589l1.812,0.515l1.817,0.515l1.812,0.442l3.63,0.809l3.704,0.589l3.625,0.515l3.629,0.442l3.554,0.294l3.475,0.148l3.4,0.147l3.25,0l4.383,-0.07l4.388,-0.069l8.917,-0.442l4.458,-0.368l4.462,-0.369l4.459,-0.441l4.458,-0.515l4.533,-0.59l4.538,-0.662l4.533,-0.736l4.538,-0.736l4.533,-0.809l4.533,-0.883l4.538,-0.883l4.608,-1.031l13.454,-52.766l44.142,-0l0,-218.574l-158.95,0l-0.004,-0.007Zm-501.648,213.128l0.226,-0.809l0.53,0.809l-0.756,-0Zm138.469,-78.304l-2.268,7.433l-21.163,68.443l-0.832,2.428l-69.536,-0l-5.367,-11.186l74.903,-74.551l-48.146,0l-58.578,61.451l18.972,-61.451l-35.524,0l-0,-121.871l147.538,-0l0,129.304l0.001,0Zm41.041,57.845l-1.133,0.07l-1.059,0.069l-1.133,0.07l-4.158,0l-1.285,0.07l-1.209,0l-9.448,-0.07l4.384,-15.749l2.041,-7.801l4.988,-18.325l3.251,0l1.587,-0.069l8.843,-0l4.46,0.069l4.081,0.148l1.814,0.07l1.738,0.147l1.663,0.221l1.512,0.221l1.36,0.221l1.285,0.368l1.21,0.368l1.058,0.442l0.907,0.442l0.831,0.589l0.757,0.589l0.604,0.736l0.377,0.59l0.302,0.589l0.302,0.662l0.227,0.736l0.151,0.809l0.08,0.809l0,1.84l-0.08,1.03l-0.071,1.031l-0.227,1.177l-0.226,1.178l-0.681,2.502l-0.831,2.797l-0.832,2.355l-0.907,2.281l-0.983,2.134l-1.058,1.987l-0.529,0.883l-0.53,0.883l-0.605,0.884l-0.681,0.808l-0.68,0.81l-0.681,0.736l-0.756,0.736l-0.756,0.662l-0.832,0.589l-0.831,0.663l-0.907,0.515l-0.983,0.589l-0.982,0.515l-1.059,0.442l-1.058,0.441l-1.133,0.369l-1.21,0.441l-1.285,0.294l-2.721,0.589l-3.023,0.441l-1.587,0.148l-1.663,0.147l0,0.012Zm107.48,20.459l15.495,-53.723l0.605,53.723l-16.1,-0Zm23.582,-85.958l-36.885,0l-25.396,85.958l-39.152,-0l1.814,-0.736l1.814,-0.736l1.738,-0.736l1.739,-0.809l1.663,-0.809l1.587,-0.957l1.587,-0.883l1.512,-0.957l1.512,-1.03l1.435,-1.03l1.361,-1.03l1.361,-1.178l1.285,-1.104l1.209,-1.251l1.209,-1.177l1.134,-1.325l1.134,-1.251l1.058,-1.399l0.982,-1.324l0.983,-1.472l0.907,-1.472l0.832,-1.472l0.831,-1.545l0.756,-1.619l0.757,-1.619l0.68,-1.62l0.604,-1.692l0.605,-1.766l0.454,-1.767l0.529,-1.766l0.378,-1.914l0.377,-1.839l0.53,-2.944l0.453,-2.797l0.302,-2.649l0.227,-2.502l0.08,-2.502l-0.08,-2.282l-0.071,-2.281l-0.302,-2.134l-0.303,-1.987l-0.529,-1.988l-0.53,-1.839l-0.756,-1.766l-0.832,-1.693l-0.906,-1.693l-1.059,-1.545l-1.209,-1.472l-0.983,-1.03l-0.982,-1.031l-1.058,-0.883l-1.134,-0.809l-1.209,-0.809l-1.21,-0.736l-1.285,-0.663l-1.285,-0.589l-1.36,-0.589l-1.36,-0.442l-1.437,-0.441l-1.436,-0.442l-1.511,-0.368l-3.024,-0.589l-1.587,-0.221l-3.25,-0.441l-3.25,-0.221l-3.326,-0.221l-3.401,-0.07l-42.856,0l0,-121.65l147.539,-0l-0,121.65l-0.004,-0.004Zm89.643,85.958l-22.146,-0l33.558,-51.516l-11.412,51.516Zm82.462,-83.529l-0.083,29.806l-1.888,2.575l-1.737,2.65l-1.742,2.649l-1.583,2.649l-1.513,2.65l-1.512,2.723l-1.284,2.649l-1.287,2.65l-1.208,2.575l-1.059,2.65l-1.058,2.575l-0.908,2.502l-0.83,2.503l-0.758,2.428l-0.679,2.355l-0.604,2.355l-0.379,1.546l-0.38,1.619l-0.375,1.545l-0.304,1.619l-0.3,1.546l-0.229,1.545l-0.225,1.546l-0.15,1.619l-21.692,-0l18.517,-85.737l-62.433,-0.07l-55.855,85.811l-4.082,-0l0,-207.608l147.616,-0l-0,124.078l0.004,-0.003Zm85.104,118.633l-3.1,0.515l-3.171,0.442l-3.175,0.441l-3.1,0.369l-3.1,0.294l-3.1,0.221l-3.02,0.147l-4.988,0l-1.967,-0.069l-1.887,-0.148l-1.892,-0.221l-1.812,-0.294l-1.742,-0.294l-1.737,-0.368l-1.663,-0.442l-3.175,-1.03l-1.512,-0.663l-1.434,-0.662l-1.437,-0.809l-1.359,-0.809l-1.287,-0.884l-1.208,-0.883l-1.209,-1.03l-1.058,-1.104l-1.058,-1.104l-0.984,-1.251l-0.908,-1.251l-0.829,-1.398l-0.759,-1.399l-0.754,-1.471l-0.604,-1.546l-0.533,-1.693l-0.45,-1.692l-0.454,-1.766l-0.305,-1.84l-0.225,-1.914l-0.15,-1.987l-0.079,-2.061l68.779,0l-7.558,29.659l0.004,-0.005Zm87.225,-35.104l-37.187,-0l6.121,-23.992l-74.525,0l-6.121,23.992l-36.054,-0l-0,-4.931l0.454,-2.06l0.375,-2.061l0.454,-2.208l0.454,-2.208l0.679,-2.428l0.684,-2.429l0.754,-2.428l0.833,-2.355l0.904,-2.355l0.984,-2.355l1.058,-2.282l1.058,-2.281l1.209,-2.282l1.212,-2.134l1.283,-2.208l1.438,-2.061l1.433,-2.06l1.438,-1.987l1.587,-1.913l1.663,-1.84l1.737,-1.767l1.738,-1.619l1.891,-1.619l1.888,-1.545l1.967,-1.399l2.116,-1.324l2.117,-1.178l2.192,-1.104l2.266,-1.03l2.346,-0.883l2.417,-0.736l2.496,-0.589l2.566,-0.515l2.646,-0.369l2.721,-0.22l2.8,-0.07l2.192,0.07l2.191,0.147l2.192,0.295l2.117,0.441l1.058,0.294l0.979,0.295l0.983,0.294l0.909,0.441l0.908,0.369l0.904,0.515l0.834,0.515l0.829,0.515l0.758,0.662l0.754,0.663l0.684,0.662l0.679,0.809l0.604,0.736l0.529,0.883l0.908,1.914l0.38,1.03l0.3,1.104l0.225,1.104l0.229,1.251l0.079,1.251l-0,2.723l-0.15,1.472l44.442,-0l0.679,-3.018l0.608,-3.458l0.3,-1.84l0.15,-1.987l0.154,-1.987l0,-2.061l-0.071,-2.134l-0.229,-2.208l-0.225,-1.03l-0.15,-1.104l-0.304,-1.104l-0.3,-1.104l-0.379,-1.178l-0.379,-1.103l-0.45,-1.104l-0.534,-1.104l-0.529,-1.104l-0.679,-1.104l-0.679,-1.104l-0.758,-1.104l-0.909,-1.177l-0.979,-1.104l-0.983,-1.104l-1.059,-1.03l-1.133,-1.031l-1.208,-0.957l-1.213,-0.882l-1.283,-0.884l-1.363,-0.883l-1.358,-0.736l-1.437,-0.735l-1.513,-0.736l-1.508,-0.663l-1.588,-0.662l-1.662,-0.59l-1.663,-0.589l-1.666,-0.515l-1.813,-0.442l-1.737,-0.441l-1.892,-0.442l-1.888,-0.368l-1.891,-0.369l-1.963,-0.294l-2.041,-0.221l-4.159,-0.441l-4.233,-0.369l-4.458,-0.147l-4.534,-0.07l-3.404,0.07l-3.55,0.07l-3.704,0.221l-3.854,0.294l-4.009,0.442l-4.079,0.515l-4.158,0.662l-4.233,0.883l-2.117,0.442l-2.192,0.515l-2.116,0.589l-2.192,0.589l-2.192,0.662l-4.383,1.472l-2.117,0.809l-2.191,0.884l-2.192,0.956l-2.117,0.957l-2.191,1.03l-2.117,1.104l-4.233,2.355l-2.113,1.325l0,-130.261l147.763,-0l-0,207.608l-0.009,0.007Z" style="fill:#fff;fill-rule:nonzero;"/></svg>