<?xml version="1.0" encoding="UTF-8" standalone="no"?>
<!DOCTYPE svg PUBLIC "-//W3C//DTD SVG 1.1//EN" "http://www.w3.org/Graphics/SVG/1.1/DTD/svg11.dtd">
<svg width="100%" height="100%" viewBox="0 0 10417 3267" version="1.1" xmlns="http://www.w3.org/2000/svg" xmlns:xlink="http://www.w3.org/1999/xlink" xml:space="preserve" xmlns:serif="http://www.serif.com/" style="fill-rule:evenodd;clip-rule:evenodd;stroke-linejoin:round;stroke-miterlimit:2;"><g><path d="M5423.25,908.644l-301.687,0l-170.149,275.894l301.535,0l170.301,-275.894Zm782.609,725.926c-158.036,13.073 -437.261,154.452 -589.341,463.357c-152.08,308.905 -152.636,499.598 -152.636,499.598c0,-0 80.204,-87.927 203.161,-179.993c122.956,-92.065 214.466,-124.773 214.466,-124.773c0,-0 22.815,-113.417 79.599,-232.032c55.219,-115.385 142.843,-235.514 251.262,-262.771c219.767,-55.32 114.527,345.802 -46.891,607.361c-86.765,140.572 -394.509,544.571 -659.45,544.571c-264.942,-0 -316.072,-255.452 -260.197,-494.298c55.825,-238.795 133.102,-542.198 519.636,-1093.48c386.535,-551.284 804.919,-878.107 1047.1,-1015.45c248.739,-140.976 350.092,-79.195 350.092,-79.195c-0,-0 -317.536,195.589 -498.184,430.902c-172.725,224.915 -275.794,477.994 -195.64,602.011c76.318,118.161 345.347,120.381 641.583,-307.34c292.399,-422.221 218.555,-673.281 218.555,-673.281c-0,-0 35.332,-11.509 59.055,-14.688c142.591,-18.979 256.815,18.625 433.678,109.328c185.292,95.043 363.064,247.477 606.654,372.199c73.34,-80.355 154.958,-165.708 240.815,-248.991c-328.388,-159.853 -577.682,-387.695 -899.761,-409.551c-280.336,-18.978 -501.364,83.182 -501.364,83.182c-0,0 -85.504,-116.445 -349.284,-78.437c-263.781,38.058 -1076.47,377.853 -1767.92,1485.16c-625.179,1001.16 -330.609,1574.91 118.767,1568.35c487.13,-7.167 950.537,-548.911 1107.36,-995.662c156.825,-446.751 -28.518,-567.84 -171.109,-556.079Zm956.292,-930.298c-81.87,199.577 -202.403,339.038 -321.018,445.54c-152.131,136.635 -235.616,132.041 -271.756,104.583c-94.387,-71.876 32.254,-342.924 252.071,-585.303c218.908,-241.421 407.38,-316.527 407.38,-316.527c0,2.827 31.345,112.407 -66.677,351.707Zm2712.66,-291.036c-222.896,143.398 -531.952,273.269 -828.592,244.65c-75.005,77.882 -155.462,167.626 -236.17,265.799c514.841,101.555 965.175,-217.394 1204.93,-489.149c149.556,-169.443 223.4,-320.716 223.4,-320.716c0,0 -142.793,157.38 -363.568,299.416Z" style="fill:#fff;fill-rule:nonzero;"/><path d="M9631.27,1671.47l-317.233,-0l-51.535,79.649c-0,-0 -64.709,-116.748 -174.289,-114.88c-187.765,3.23 -375.682,146.578 -594.036,395.216c-160.055,182.163 -425.349,587.726 -425.349,587.726c-0,0 -203.564,313.7 -306.533,289.119c-175.55,-41.945 147.336,-691.502 147.336,-691.502c-0,-0 169.746,-104.836 389.714,-289.927c138.503,-116.495 297.851,-276.752 444.328,-425.299c133.203,-135.12 290.179,-318.595 439.382,-519.585c-38.209,6.057 -77.378,10.145 -117.303,12.114c-133.808,176.459 -276.651,334.394 -398.144,459.924c-180.85,186.857 -347.215,339.745 -468.101,437.262c-115.84,93.378 -190.138,135.423 -190.138,135.423c-0,0 220.978,-453.817 589.291,-955.232c368.313,-501.364 884.012,-967.144 843.582,-746.166c-11.559,63.446 -50.979,154.452 -110.489,262.468c41.894,-8.732 82.577,-19.635 121.846,-32.051c88.734,-183.173 118.969,-334.142 52.746,-377.753c-270.241,-177.973 -957.605,558.452 -1302.19,986.174c-344.54,427.721 -656.372,1081.37 -656.372,1081.37c0,-0 -53.907,22.612 -113.517,33.919c-37.604,7.167 -53.655,5.602 -59.813,3.18c-3.078,-1.262 -3.432,-3.382 -3.432,-3.382c0,-0 303.1,-566.628 -7.218,-641.785c-299.466,-72.482 -818.345,481.528 -1002.83,866.902c-126.591,264.386 -198.012,597.215 19.079,676.46c235.111,85.858 634.466,-343.378 728.349,-468.101c93.883,-124.773 211.085,-332.224 211.085,-332.224c-0,-0 57.339,-3.029 88.684,-7.622c59.963,-8.833 88.027,-16.202 88.027,-16.202c0,-0 -38.865,101.807 -80.911,230.871c-78.387,240.663 -149.102,585.001 133.102,601.203c179.791,10.246 443.571,-314.457 443.571,-314.457c-0,0 -70.967,288.715 162.377,314.457c172.27,18.978 422.977,-247.174 422.977,-247.174c0,-0 -54.613,229.306 120.029,249.496c149.505,17.312 361.751,-157.986 535.788,-350.849c190.037,-210.58 335.807,-441.199 335.807,-441.199l-110.489,0c0,0 -244.549,371.19 -416.264,470.524c-140.975,81.567 -92.671,-49.111 -49.919,-117.605c47.143,-75.561 638.857,-1080.46 638.857,-1080.41l0.152,-0.05Zm-2416.98,699.124c-4.341,9.943 -83.738,148.092 -168.687,256.714c-91.51,117.05 -259.035,293.207 -359.732,255.956c-157.431,-58.247 15.798,-401.222 129.063,-567.587c113.265,-166.364 126.136,-177.62 129.316,-181.961c3.18,-4.34 6.36,-8.328 9.136,-3.179c2.776,5.148 38.815,73.491 109.984,132.798c71.472,59.56 140.219,91.006 145.771,92.974c5.552,1.969 9.54,4.341 5.149,14.234l-0,0.051Zm70.815,-123.613c-9.943,16.556 -17.06,17.364 -37.704,11.862c-36.342,-9.843 -186.908,-79.447 -185.747,-233.849c1.06,-150.465 213.155,-297.851 296.337,-234.858c77.63,58.752 40.531,208.965 11.256,285.585c-29.225,76.57 -77.63,160.408 -84.142,171.26Zm1441.15,372.2c-41.894,57.44 -76.924,109.328 -108.521,145.771c-67.535,77.983 -111.599,114.275 -150.868,123.865c-19.786,4.795 -44.317,3.634 -60.57,-6.209c-57.642,-35.08 -17.262,-171.664 83.081,-355.291c91.814,-167.828 197.911,-335.757 372.301,-529.074c175.096,-194.075 242.076,-203.413 291.087,-201.192c41.238,1.766 47.093,45.124 47.093,45.124c-0,0 -2.928,10.045 -9.489,21.401c-57.794,100.192 -348.931,597.67 -464.165,755.605l0.051,0Zm-4679.35,242.783c-192.358,-118.868 -439.129,-195.135 -722.645,-197.608c-730.367,-6.36 -1525.6,348.477 -2064.21,353.272c-635.273,5.552 -666.921,-483.194 -619.828,-751.567c101.353,-578.187 511.459,-1129.77 775.139,-1420.61c263.73,-290.835 540.078,-516.507 769.839,-574.199c229.76,-57.693 208.157,117.05 180.043,140.925c-29.023,0.605 -84.697,6.864 -116.294,28.72c-49.465,34.121 -115.536,96.608 -119.675,195.69c-7.117,152.635 190.138,179.387 332.728,-140.219c97.265,-217.999 -56.985,-365.941 -185.09,-380.174c-175.702,-19.585 -444.227,41.49 -764.741,247.477c-557.845,358.47 -1304.01,1154.51 -1323.04,2037.71c-10.853,503.838 318.292,787.354 769.889,787.354c451.596,-0 1064.71,-276.551 1663.39,-283.617c370.685,-3.18 610.591,126.742 732.084,338.331c-0,0 120.735,-200.838 389.613,-211.589c266.001,-10.701 558.855,63.85 799.266,232.839c-80.204,-115.89 -306.936,-285.636 -496.519,-402.737l0.05,0Z" style="fill:#fff;fill-rule:nonzero;"/><path d="M2383.62,877.754c-306.179,-78.034 -814.66,443.167 -1028.92,867.355c-132.142,261.661 -190.087,590.503 45.175,676.057c235.262,85.555 634.416,-343.378 728.298,-468.101c93.883,-124.773 247.528,-374.673 247.528,-374.673c-0,-0 47.143,-9.086 78.034,-16.253c30.89,-7.168 80.81,-21.401 80.81,-21.401c-0,-0 -57.895,103.17 -110.136,208.914c-61.932,125.379 -230.215,542.754 94.69,667.931c310.419,119.574 752.324,-379.065 775.543,-388.503c-0,-0 -131.537,339.795 72.784,392.086c224.208,57.34 469.919,-229.911 469.919,-229.911c-0,-0 -51.737,215.627 122.956,235.867c312.842,36.191 866.195,-763.983 866.195,-763.983l-110.54,-0c0,-0 -281.597,362.357 -417.021,437.211c-135.423,74.854 -86.715,-58.147 -49.919,-117.606c46.941,-75.662 645.166,-1075.26 645.166,-1075.26l-317.233,0l-36.796,58.197c0,0 -65.364,-99.788 -174.642,-92.671c-317.939,20.745 -696.247,527.51 -862.611,750.86c-166.314,223.401 -525.138,649.911 -714.064,573.897c-205.886,-82.88 -1.161,-463.357 134.262,-686.758c147.436,-243.187 408.744,-484.051 512.065,-485.919c127.146,-2.372 77.226,112.861 77.226,112.861c0,0 -95.043,-11.861 -163.941,74.854c-48.759,61.327 -89.138,150.869 -42.803,199.577c74.854,78.69 172.321,-1.212 230.518,-90.35c181.456,-277.762 48.708,-424.138 -93.833,-445.489c-303.655,-45.578 -583.385,344.54 -796.035,489.503c-147.537,100.495 -209.167,92.671 -209.167,92.671c0,0 255.957,-502.121 -53.452,-581.013l-0.051,0.051Zm1374.68,898.246c91.813,-167.879 216.889,-329.953 379.67,-533.113c162.78,-203.16 243.792,-219.615 292.803,-217.394c41.238,1.817 47.093,45.124 47.093,45.124c-0,0 -353.676,616.245 -481.982,792.098c-41.894,57.44 -77.731,106.098 -109.328,142.591c-67.535,77.983 -116.597,115.688 -154.453,125.076c-19.786,4.846 -44.316,3.634 -60.62,-6.259c-57.642,-35.08 -13.678,-164.547 86.766,-348.123l0.051,-0Zm-1501.02,-199.981c-4.391,9.893 -105.391,176.914 -190.289,285.535c-91.46,117.051 -260.499,293.914 -361.196,256.664c-157.431,-58.248 10.499,-398.851 123.764,-565.165c113.265,-166.364 129.871,-187.765 133.101,-192.055c3.18,-4.392 6.309,-8.379 9.086,-3.18c2.776,5.148 38.815,79.245 116.848,129.114c78.034,49.919 158.036,72.885 163.589,74.854c5.552,1.968 9.539,4.391 5.148,14.233l-0.051,0Zm131.689,-259.994c-29.276,76.671 -55.421,124.975 -60.822,136.382c-8.682,18.272 -30.436,12.417 -30.436,12.417c-24.783,-1.111 -217.445,-45.074 -216.335,-199.476c1.06,-150.465 213.205,-297.851 296.337,-234.858c77.63,58.752 40.531,208.965 11.256,285.535Zm7003.61,1689.54c-18.524,-10.498 -39.118,-15.697 -61.781,-15.697c-22.663,-0 -43.257,5.249 -61.781,15.697c-18.524,10.499 -33.061,24.733 -43.711,42.853c-10.6,18.07 -15.95,37.755 -15.95,58.955c0,21.199 5.3,41.238 15.95,59.207c10.6,17.918 25.187,32.152 43.711,42.6c18.524,10.499 39.118,15.698 61.781,15.698c22.663,-0 43.257,-5.25 61.781,-15.698c18.524,-10.448 33.061,-24.682 43.711,-42.6c10.6,-17.919 15.95,-37.655 15.95,-59.207c0,-21.553 -5.3,-40.885 -15.95,-58.955c-10.6,-18.069 -25.187,-32.354 -43.711,-42.853Zm21.755,150.465c-8.026,14.335 -19.332,25.591 -33.818,33.818c-14.487,8.177 -31.093,12.266 -49.718,12.266c-18.625,-0 -35.231,-4.089 -49.717,-12.266c-14.487,-8.177 -25.742,-19.432 -33.818,-33.818c-8.026,-14.334 -12.064,-30.587 -12.064,-48.657c0,-18.07 4.038,-33.869 12.064,-48.203c8.025,-14.335 19.382,-25.591 34.02,-33.818c14.637,-8.228 31.142,-12.266 49.515,-12.266c18.373,0 34.878,4.089 49.516,12.266c14.637,8.176 25.994,19.432 34.02,33.818c8.025,14.334 12.063,30.436 12.063,48.203c0,17.767 -4.038,34.323 -12.063,48.657Z" style="fill:#fff;fill-rule:nonzero;"/><path d="M9376.43,3105.45c3.432,-5.603 5.149,-11.862 5.149,-18.726c-0,-9.49 -3.079,-17.414 -9.237,-23.875c-6.158,-6.461 -14.436,-9.691 -24.733,-9.691l-61.579,0l0,106.35l27.105,0l-0,-38.764l20.644,-0l24.985,38.764l30.991,0l-27.962,-41.339c6.309,-2.877 11.205,-7.117 14.637,-12.719Zm-25.843,-11.206c-2.019,1.868 -4.744,2.776 -8.177,2.776l-29.275,0l-0,-20.644l29.275,0c3.433,0 6.158,0.959 8.177,2.776c2.019,1.868 3.029,4.392 3.029,7.521c-0,3.13 -1.01,5.653 -3.029,7.521l0,0.05Z" style="fill:#fff;fill-rule:nonzero;"/></g></svg>